<?xml version="1.0" encoding="UTF-8"?>
<svg version="1.1" xmlns="http://www.w3.org/2000/svg" width="190" height="40">
<path d="M0 0 C5.42978138 1.98395858 8.23924671 4.93451585 11.0859375 9.890625 C12.89317375 14.0611702 12.81767118 18.73703976 11.27734375 23 C8.7671129 27.71557537 5.65733125 31.02098322 0.625 32.875 C-2.89485826 33.0426123 -5.69051955 32.14558939 -9 31 C-9.33 30.67 -9.66 30.34 -10 30 C-9.91062197 28.47480724 -9.75462854 26.95318071 -9.5625 25.4375 C-9.46066406 24.61121094 -9.35882813 23.78492187 -9.25390625 22.93359375 C-9.17011719 22.29550781 -9.08632813 21.65742188 -9 21 C-8.34 21 -7.68 21 -7 21 C-7 20.01 -7 19.02 -7 18 C-9.0162233 18.71563266 -9.0162233 18.71563266 -11 20 C-11.80528889 22.05000871 -11.80528889 22.05000871 -12 24 C-13.32 23.67 -14.64 23.34 -16 23 C-15.67 20.69 -15.34 18.38 -15 16 C-13.35 15.34 -11.7 14.68 -10 14 C-11.32 13.67 -12.64 13.34 -14 13 C-13.34 13 -12.68 13 -12 13 C-11.44318553 10.0071222 -10.98638234 7.29958845 -11.125 4.25 C-11.08375 3.5075 -11.0425 2.765 -11 2 C-7.27328121 -0.4844792 -4.31556709 -0.52409164 0 0 Z M-6 9 C-6.66 9.66 -7.32 10.32 -8 11 C-8 11.66 -8 12.32 -8 13 C-7.01 13.33 -6.02 13.66 -5 14 C-4.34 12.68 -3.68 11.36 -3 10 C-3.99 9.67 -4.98 9.34 -6 9 Z M-3 20 C-3.66 21.32 -4.32 22.64 -5 24 C-4.01 24.33 -3.02 24.66 -2 25 C-1.67 23.68 -1.34 22.36 -1 21 C-1.66 20.67 -2.32 20.34 -3 20 Z M-7 28 C-7 28.66 -7 29.32 -7 30 C-6.01 29.67 -5.02 29.34 -4 29 C-4.99 28.67 -5.98 28.34 -7 28 Z " fill="#4080C8" transform="translate(43,5)"/>
<path d="M0 0 C1.22396484 -0.00580078 1.22396484 -0.00580078 2.47265625 -0.01171875 C3.26285156 -0.01042969 4.05304687 -0.00914063 4.8671875 -0.0078125 C5.5876123 -0.00668457 6.30803711 -0.00555664 7.05029297 -0.00439453 C9.125 0.125 9.125 0.125 11.23095703 0.66064453 C13.75164152 1.27863137 15.62006888 0.70306103 18.125 0.125 C21.87025624 0.125 25.5190476 0.58374178 29.23828125 1.00390625 C32.3588999 1.13481177 35.05215548 0.65601252 38.125 0.125 C40.41583289 0.05977127 42.70835794 0.0391159 45 0.0625 C46.15242188 0.07152344 47.30484375 0.08054688 48.4921875 0.08984375 C49.36101562 0.10144531 50.22984375 0.11304688 51.125 0.125 C51.62 2.6 51.62 2.6 52.125 5.125 C31.335 5.125 10.545 5.125 -10.875 5.125 C-10.875 3.805 -10.875 2.485 -10.875 1.125 C-7.50238716 -0.56130642 -3.70541037 -0.01739629 0 0 Z " fill="#FEFEFE" transform="translate(20.875,56.875)"/>
<path d="M0 0 C3.83546669 2.28551782 5.9720262 6.02373506 7.7109375 10.01953125 C8.73691516 16.47364651 7.50434364 20.79078225 3.7109375 26.01953125 C0.51544635 29.13308673 -1.84696415 30.51186287 -6.2890625 31.01953125 C-6.2890625 30.02953125 -6.2890625 29.03953125 -6.2890625 28.01953125 C-5.6290625 28.01953125 -4.9690625 28.01953125 -4.2890625 28.01953125 C-3.9590625 24.71953125 -3.6290625 21.41953125 -3.2890625 18.01953125 C-1.9690625 18.01953125 -0.6490625 18.01953125 0.7109375 18.01953125 C-0.6090625 15.37953125 -1.9290625 12.73953125 -3.2890625 10.01953125 C-2.2990625 9.68953125 -1.3090625 9.35953125 -0.2890625 9.01953125 C-1.1140625 8.09140625 -1.9390625 7.16328125 -2.7890625 6.20703125 C-5.2890625 3.39453125 -5.2890625 3.39453125 -5.2890625 0.01953125 C-6.2790625 -0.31046875 -7.2690625 -0.64046875 -8.2890625 -0.98046875 C-4.75545859 -2.15833672 -3.30676481 -1.52780906 0 0 Z " fill="#42779B" transform="translate(47.2890625,6.98046875)"/>
<path d="M0 0 C19.34042553 -0.19148936 19.34042553 -0.19148936 29 1 C28.67 2.65 28.34 4.3 28 6 C24.51647149 7.13047199 21.62146002 6.92917283 18 6.5625 C11.97790353 5.7715966 11.97790353 5.7715966 6.0625 6.625 C3.23958951 7.13825645 1.5449507 6.20178227 -1 5 C-0.67 3.35 -0.34 1.7 0 0 Z " fill="#FEFEFE" transform="translate(5,48)"/>
<path d="M0 0 C0.33 -0.66 0.66 -1.32 1 -2 C1.66 -2 2.32 -2 3 -2 C3 -1.34 3 -0.68 3 0 C4.98 0 6.96 0 9 0 C9 -0.66 9 -1.32 9 -2 C9.99 -2 10.98 -2 12 -2 C12 0.31 12 2.62 12 5 C8.54173658 5.05789006 5.08359707 5.09355821 1.625 5.125 C0.64015625 5.14175781 -0.3446875 5.15851562 -1.359375 5.17578125 C-2.30039062 5.18222656 -3.24140625 5.18867187 -4.2109375 5.1953125 C-5.51490479 5.21102295 -5.51490479 5.21102295 -6.84521484 5.22705078 C-9 5 -9 5 -11 3 C-10.625 0.875 -10.625 0.875 -10 -1 C-6.09380015 -2.25556424 -3.63177916 -1.81588958 0 0 Z " fill="#FEFEFE" transform="translate(46,49)"/>
<path d="M0 0 C0.95519531 0.0721875 1.91039062 0.144375 2.89453125 0.21875 C10.61440154 0.77291816 18.25465097 1.14492337 26 1 C26 2.65 26 4.3 26 6 C17.75 6 9.5 6 1 6 C0.67 4.02 0.34 2.04 0 0 Z " fill="#FEFEFE" transform="translate(11,63)"/>
<path d="M0 0 C7.92 0 15.84 0 24 0 C23.67 1.65 23.34 3.3 23 5 C15.41 5 7.82 5 0 5 C0 3.35 0 1.7 0 0 Z " fill="#FEFEFE" transform="translate(38,64)"/>
<path d="M0 0 C2.5955269 1.55141722 4.10355629 3.50764156 5.71875 6.02734375 C5.71875 6.68734375 5.71875 7.34734375 5.71875 8.02734375 C3.73875 9.01734375 3.73875 9.01734375 1.71875 10.02734375 C2.70875 10.35734375 3.69875 10.68734375 4.71875 11.02734375 C4.05875 11.68734375 3.39875 12.34734375 2.71875 13.02734375 C2.05875 12.69734375 1.39875 12.36734375 0.71875 12.02734375 C0.05875 12.68734375 -0.60125 13.34734375 -1.28125 14.02734375 C-1.94125 12.70734375 -2.60125 11.38734375 -3.28125 10.02734375 C-2.29125 9.69734375 -1.30125 9.36734375 -0.28125 9.02734375 C-1.10625 8.09921875 -1.93125 7.17109375 -2.78125 6.21484375 C-5.28125 3.40234375 -5.28125 3.40234375 -5.28125 0.02734375 C-6.27125 -0.30265625 -7.26125 -0.63265625 -8.28125 -0.97265625 C-4.7508438 -2.14945832 -3.30641388 -1.52010977 0 0 Z " fill="#498AA6" transform="translate(47.28125,6.97265625)"/>
<path d="M0 0 C-0.43437352 4.92289989 -2.643619 7.48750825 -6 11 C-8.71490725 12.75670469 -9.71434047 13 -13 13 C-13 12.01 -13 11.02 -13 10 C-12.34 10 -11.68 10 -11 10 C-11 9.01 -11 8.02 -11 7 C-10.01 6.67 -9.02 6.34 -8 6 C-8 5.34 -8 4.68 -8 4 C-5.17157511 0.56548406 -4.64779334 0 0 0 Z " fill="#457880" transform="translate(54,25)"/>
<path d="M0 0 C3.63 0 7.26 0 11 0 C11 1.65 11 3.3 11 5 C10.01 5.33 9.02 5.66 8 6 C6 5 6 5 5 2 C5 3.32 5 4.64 5 6 C3.35 6 1.7 6 0 6 C0 4.02 0 2.04 0 0 Z " fill="#FEFEFE" transform="translate(59,48)"/>
<path d="M0 0 C2 1 2 1 3 3 C4.65 3 6.3 3 8 3 C8 3.66 8 4.32 8 5 C6.02 5.99 6.02 5.99 4 7 C4.99 7.33 5.98 7.66 7 8 C6.34 8.66 5.68 9.32 5 10 C4.34 9.67 3.68 9.34 3 9 C2.34 9.66 1.68 10.32 1 11 C0.34 9.68 -0.32 8.36 -1 7 C-0.01 6.67 0.98 6.34 2 6 C1.01 4.35 0.02 2.7 -1 1 C-0.67 0.67 -0.34 0.34 0 0 Z " fill="#5EA176" transform="translate(45,10)"/>
<path d="M0 0 C2.97 0 5.94 0 9 0 C9 1.65 9 3.3 9 5 C6.36 5 3.72 5 1 5 C0.67 3.35 0.34 1.7 0 0 Z " fill="#FEFEFE" transform="translate(0,57)"/>
<path d="M0 0 C2.97 0.495 2.97 0.495 6 1 C5 4 5 4 3.125 5.1875 C1 6 1 6 -2 6 C-2 5.01 -2 4.02 -2 3 C-1.34 3 -0.68 3 0 3 C0 2.01 0 1.02 0 0 Z " fill="#3E6D87" transform="translate(43,32)"/>
<path d="M0 0 C0.99 0.33 1.98 0.66 3 1 C2.67 2.65 2.34 4.3 2 6 C1.01 5.67 0.02 5.34 -1 5 C-0.67 3.35 -0.34 1.7 0 0 Z " fill="#3E7BC4" transform="translate(24,17)"/>
<path d="M0 0 C0 0.66 0 1.32 0 2 C-1.98 2 -3.96 2 -6 2 C-6 1.34 -6 0.68 -6 0 C-6.99 -0.33 -7.98 -0.66 -9 -1 C-5.23375329 -2.25541557 -3.62811066 -1.37061958 0 0 Z " fill="#5CA693" transform="translate(48,7)"/>
<path d="M0 0 C0.99 0.33 1.98 0.66 3 1 C3 2.32 3 3.64 3 5 C1.68 4.67 0.36 4.34 -1 4 C-0.67 2.68 -0.34 1.36 0 0 Z " fill="#3A6AB9" transform="translate(21,23)"/>
<path d="M0 0 C0.99 0 1.98 0 3 0 C2.67 1.65 2.34 3.3 2 5 C1.01 4.67 0.02 4.34 -1 4 C-0.67 2.68 -0.34 1.36 0 0 Z " fill="#3F7CC5" transform="translate(21,13)"/>
<path d="M0 0 C0.66 0.33 1.32 0.66 2 1 C1.67 2.32 1.34 3.64 1 5 C0.01 4.67 -0.98 4.34 -2 4 C-1.34 2.68 -0.68 1.36 0 0 Z " fill="#448ED0" transform="translate(28,11)"/>
<path d="M0 0 C0.99 0 1.98 0 3 0 C3 0.99 3 1.98 3 3 C2.01 3 1.02 3 0 3 C0 2.01 0 1.02 0 0 Z " fill="#365FB1" transform="translate(27,32)"/>
<path d="M0 0 C0.33 0 0.66 0 1 0 C1 1.98 1 3.96 1 6 C0.67 6 0.34 6 0 6 C0 4.02 0 2.04 0 0 Z " fill="#4D7DA9" transform="translate(56,19)"/>
<path d="M0 0 C1.98 0 3.96 0 6 0 C6 0.33 6 0.66 6 1 C4.02 1 2.04 1 0 1 C0 0.67 0 0.34 0 0 Z " fill="#6AB7F2" transform="translate(36,3)"/>
<path d="M0 0 C1 4 1 4 1 4 Z " fill="#FEFEFE" transform="translate(74,58)"/>
<path d="M0 0 C1 4 1 4 1 4 Z " fill="#3D73BF" transform="translate(32,25)"/>
<path d="M0 0 C3 1 3 1 3 1 Z " fill="#FFFFFF" transform="translate(6,63)"/>
<path d="M0 0 C3 1 3 1 3 1 Z " fill="#3766B6" transform="translate(27,30)"/>
<path d="" fill="#527BCE" transform="translate(0,0)"/>
<path d="" fill="#3E78C2" transform="translate(0,0)"/>
<path d="" fill="#FFFFFF" transform="translate(0,0)"/>
<path d="M0 0 C2 1 2 1 2 1 Z " fill="#FFFFFF" transform="translate(70,63)"/>
<path d="M0 0 C2 1 2 1 2 1 Z " fill="#FFFFFF" transform="translate(67,63)"/>
<path d="M0 0 C2 1 2 1 2 1 Z " fill="#FFFFFF" transform="translate(64,63)"/>
<path d="M0 0 C2 1 2 1 2 1 Z " fill="#FFFFFF" transform="translate(30,56)"/>
<path d="M0 0 C2 1 2 1 2 1 Z " fill="#FFFFFF" transform="translate(27,56)"/>
<path d="M0 0 C2 1 2 1 2 1 Z " fill="#FFFFFF" transform="translate(9,56)"/>
<path d="" fill="#FFFFFF" transform="translate(0,0)"/>
<path d="M0 0 C2 1 2 1 2 1 Z " fill="#3F64B8" transform="translate(27,36)"/>
<path d="" fill="#375FB1" transform="translate(0,0)"/>
<path d="" fill="#3868B7" transform="translate(0,0)"/>
<path d="M0 0 C2 1 2 1 2 1 Z " fill="#3C6ABA" transform="translate(21,29)"/>
<path d="M0 0 C2 1 2 1 2 1 Z " fill="#3C6FBE" transform="translate(39,27)"/>
<path d="" fill="#3B6EBC" transform="translate(0,0)"/>
<path d="M0 0 C2 1 2 1 2 1 Z " fill="#448CCF" transform="translate(27,17)"/>
<path d="" fill="#5C92DE" transform="translate(0,0)"/>
<path d="" fill="#447FA2" transform="translate(0,0)"/>
<path d="" fill="#4998D9" transform="translate(0,0)"/>
<path d="M0 0 C2 1 2 1 2 1 Z " fill="#407FC8" transform="translate(21,11)"/>
<path d="" fill="#50A6E1" transform="translate(0,0)"/>
<path d="" fill="#FFFFFF" transform="translate(0,0)"/>
<path d="" fill="#FFFFFF" transform="translate(0,0)"/>
<path d="" fill="#FFFFFF" transform="translate(0,0)"/>
<path d="" fill="#FFFFFF" transform="translate(0,0)"/>
<path d="" fill="#FFFFFF" transform="translate(0,0)"/>
<path d="" fill="#FFFFFF" transform="translate(0,0)"/>
<path d="" fill="#FFFFFF" transform="translate(0,0)"/>
<path d="" fill="#FFFFFF" transform="translate(0,0)"/>
<path d="" fill="#FFFFFF" transform="translate(0,0)"/>
<path d="" fill="#FFFFFF" transform="translate(0,0)"/>
<path d="" fill="#FEFEFE" transform="translate(0,0)"/>
<path d="" fill="#FFFFFF" transform="translate(0,0)"/>
<path d="" fill="#FFFFFF" transform="translate(0,0)"/>
<path d="" fill="#FFFFFF" transform="translate(0,0)"/>
<path d="" fill="#FFFFFF" transform="translate(0,0)"/>
<path d="" fill="#FFFFFF" transform="translate(0,0)"/>
<path d="" fill="#FFFFFF" transform="translate(0,0)"/>
<path d="" fill="#FFFFFF" transform="translate(0,0)"/>
<path d="" fill="#FFFFFF" transform="translate(0,0)"/>
<path d="" fill="#FFFFFF" transform="translate(0,0)"/>
<path d="" fill="#FFFFFF" transform="translate(0,0)"/>
<path d="" fill="#FFFFFF" transform="translate(0,0)"/>
<path d="" fill="#FFFFFF" transform="translate(0,0)"/>
<path d="" fill="#FFFFFF" transform="translate(0,0)"/>
<path d="" fill="#FFFFFF" transform="translate(0,0)"/>
<path d="" fill="#FFFFFF" transform="translate(0,0)"/>
<path d="" fill="#FFFFFF" transform="translate(0,0)"/>
<path d="" fill="#FEFEFE" transform="translate(0,0)"/>
<path d="" fill="#FFFFFF" transform="translate(0,0)"/>
<path d="" fill="#FFFFFF" transform="translate(0,0)"/>
<path d="" fill="#FFFFFF" transform="translate(0,0)"/>
<path d="" fill="#FFFFFF" transform="translate(0,0)"/>
<path d="" fill="#FFFFFF" transform="translate(0,0)"/>
<path d="" fill="#FFFFFF" transform="translate(0,0)"/>
<path d="" fill="#FFFFFF" transform="translate(0,0)"/>
<path d="" fill="#FFFFFF" transform="translate(0,0)"/>
<path d="" fill="#FEFEFE" transform="translate(0,0)"/>
<path d="" fill="#FFFFFF" transform="translate(0,0)"/>
<path d="" fill="#FFFFFF" transform="translate(0,0)"/>
<path d="" fill="#FFFFFF" transform="translate(0,0)"/>
<path d="" fill="#FFFFFF" transform="translate(0,0)"/>
<path d="" fill="#3A6484" transform="translate(0,0)"/>
<path d="" fill="#3C6490" transform="translate(0,0)"/>
<path d="" fill="#385CAE" transform="translate(0,0)"/>
<path d="" fill="#4C8070" transform="translate(0,0)"/>
<path d="" fill="#365CB0" transform="translate(0,0)"/>
<path d="" fill="#3A6494" transform="translate(0,0)"/>
<path d="" fill="#3660B0" transform="translate(0,0)"/>
<path d="" fill="#406E84" transform="translate(0,0)"/>
<path d="" fill="#3C688E" transform="translate(0,0)"/>
<path d="" fill="#466ABE" transform="translate(0,0)"/>
<path d="" fill="#406E84" transform="translate(0,0)"/>
<path d="" fill="#42747C" transform="translate(0,0)"/>
<path d="" fill="#305E78" transform="translate(0,0)"/>
<path d="" fill="#427868" transform="translate(0,0)"/>
<path d="" fill="#2C5C96" transform="translate(0,0)"/>
<path d="" fill="#3E78C4" transform="translate(0,0)"/>
<path d="" fill="#4074C0" transform="translate(0,0)"/>
<path d="" fill="#447EC8" transform="translate(0,0)"/>
<path d="" fill="#3C6CB8" transform="translate(0,0)"/>
<path d="" fill="#4080C8" transform="translate(0,0)"/>
<path d="" fill="#407AC4" transform="translate(0,0)"/>
<path d="" fill="#448CD0" transform="translate(0,0)"/>
<path d="" fill="#4890D4" transform="translate(0,0)"/>
<path d="" fill="#3074BC" transform="translate(0,0)"/>
<path d="" fill="#3C74A4" transform="translate(0,0)"/>
<path d="" fill="#4898D8" transform="translate(0,0)"/>
<path d="" fill="#3074BC" transform="translate(0,0)"/>
<path d="" fill="#589A8A" transform="translate(0,0)"/>
<path d="" fill="#4A94D4" transform="translate(0,0)"/>
<path d="" fill="#4E9094" transform="translate(0,0)"/>
<path d="" fill="#549892" transform="translate(0,0)"/>
<path d="" fill="#5092A8" transform="translate(0,0)"/>
<path d="" fill="#5094BE" transform="translate(0,0)"/>
<path d="" fill="#4CA4E0" transform="translate(0,0)"/>
<path d="" fill="#549C98" transform="translate(0,0)"/>
</svg>
